<svg t="1620707339493" class="icon" viewBox="0 0 1025 1024" version="1.1" xmlns="http://www.w3.org/2000/svg" p-id="1176" width="200" height="200"><path d="M608.828084 1023.951356h-484.504284a27.519843 27.519843 0 0 1-27.422943-27.519844v-872.107712A124.517601 124.517601 0 0 1 221.224656 0h290.702571a124.517601 124.517601 0 0 1 124.420701 124.3238v872.107712a27.519843 27.519843 0 0 1-27.519844 27.519844zM151.843643 969.00857H581.405142V124.3238a69.477914 69.477914 0 0 0-69.477915-69.381014h-290.702571a69.477914 69.477914 0 0 0-69.381013 69.381014z" p-id="1177"></path><path d="M920.86398833 1023.951356h-290.702571a27.519843 27.519843 0 0 1 0-54.942786H893.44104633V466.96523a69.477914 69.477914 0 0 0-30.911374-58.140514l-247.581689-164.731457a27.422943 27.422943 0 1 1 30.52377-45.640304L893.44104633 363.475115a123.936196 123.936196 0 0 1 55.42729 103.490115v529.466282a27.519843 27.519843 0 0 1-28.004348 27.519844z" p-id="1178"></path><path d="M996.431512 1023.951356h-969.008569a27.519843 27.519843 0 0 1 0-54.942786h969.008569a27.519843 27.519843 0 1 1 0 54.942786zM463.476799 345.645357h-193.801714a27.519843 27.519843 0 0 1 0-54.942786h193.801714a27.519843 27.519843 0 1 1 0 54.942786zM463.476799 539.447071h-193.801714a27.519843 27.519843 0 0 1 0-54.942786h193.801714a27.519843 27.519843 0 1 1 0 54.942786zM463.476799 733.248785h-193.801714a27.519843 27.519843 0 0 1 0-54.942786h193.801714a27.519843 27.519843 0 1 1 0 54.942786z" p-id="1179"></path></svg>